<?xml version="1.0" encoding="iso-8859-1"?>
<!-- Generator: Adobe Illustrator 18.0.0, SVG Export Plug-In . SVG Version: 6.00 Build 0)  -->
<!DOCTYPE svg PUBLIC "-//W3C//DTD SVG 1.1//EN" "http://www.w3.org/Graphics/SVG/1.1/DTD/svg11.dtd">
<svg width="100px" viewBox="0 0 369 234" preserveAspectRatio="xMidYMid meet" class="css-1y5supu" id="gbbfdccg"><defs id="SvgjsDefs1311"></defs><g
       id="SvgjsG1312" featurekey="root" fill="#83e907"></g><g id="SvgjsG1313" featurekey="symbol1" fill="#000000" transform="matrix(0.8974358974358975,0,0,0.8974358974358975,141.92307692307693,8.205128205128204)"><title>Artboard 64</title><path d="M48,94A39,39,0,1,1,87,55,39.0439,39.0439,0,0,1,48,94Zm0-74A35,35,0,1,0,83,55,35.03994,35.03994,0,0,0,48,20Z"></path><path d="M48,82.22754A27.22754,27.22754,0,1,1,75.22754,55,27.25792,27.25792,0,0,1,48,82.22754Zm0-50.45508A23.22754,23.22754,0,1,0,71.22754,55,23.254,23.254,0,0,0,48,31.77246Z"></path><path d="M48,20a9,9,0,1,1,9-9A9.00984,9.00984,0,0,1,48,20ZM48,6a5,5,0,1,0,5,5A5.00588,5.00588,0,0,0,48,6Z"></path><path d="M37.39453,67.60645a1.99989,1.99989,0,0,1-1.73144-3.002l7.77832-13.43457a1.98958,1.98958,0,0,1,.72851-.72851l13.43457-7.77832a1.99954,1.99954,0,0,1,2.73242,2.73242L52.55859,58.83008a1.98958,1.98958,0,0,1-.72851.72851L38.39551,67.33691A1.98863,1.98863,0,0,1,37.39453,67.60645Zm9.24121-13.97071-3.75293,6.48145,6.48145-3.75293,3.75293-6.48145Z"></path><path d="M48,38a2.0001,2.0001,0,0,1-2-2V30a2,2,0,0,1,4,0v6A2.0001,2.0001,0,0,1,48,38Z"></path><path d="M48,82a2.0001,2.0001,0,0,1-2-2V74a2,2,0,0,1,4,0v6A2.0001,2.0001,0,0,1,48,82Z"></path><path d="M29,57H23a2,2,0,0,1,0-4h6a2,2,0,0,1,0,4Z"></path><path d="M73,57H67a2,2,0,0,1,0-4h6a2,2,0,0,1,0,4Z"></path></g><g id="SvgjsG1314" featurekey="text1" fill="#000000" transform="matrix(4.082441529213855,0,0,4.082441529213855,-4.1518438450209745,80.8600553632339)"><path d="M7.9831 24.11864 c3.8305 0 6.9492 -3.0337 6.9492 -6.8981 c0 -3.8475 -3.1186 -6.8983 -6.9492 -6.8983 c-3.8475 0 -6.9661 3.0508 -6.9661 6.8983 c0 3.8644 3.1186 6.8981 6.9661 6.8981 z M7.9831 22.8307 c-3.0847 0 -5.6441 -2.5085 -5.6441 -5.6102 s2.5593 -5.6102 5.6441 -5.6102 c3.0846 0 5.61 2.5085 5.61 5.6102 s-2.5254 5.6102 -5.61 5.6102 z M24.55915254237288 15.6102 c0.11864 0 0.18644 0.10153 0.18644 0.23712 l0 7.9492 c0 0.11864 -0.084746 0.20322 -0.18644 0.20322 l-0.72881 0 c-0.18644 0 -0.35593 -0.27102 -0.35593 -0.47441 l0 -0.71186 c-0.72881 0.62712 -1.7627 1.3049 -3.1525 1.3049 c-1.7627 0 -3.4576 -1.0507 -3.4576 -3.1861 l0 -3.7966 c-0.016949 -0.45763 -0.033898 -0.86441 -0.067797 -1.2373 c-0.016949 -0.16949 0.016949 -0.28831 0.15254 -0.28831 l0.72881 0 c0.32203 0 0.45763 0.20339 0.45763 0.49153 l0 4.661 c0 1.2881 0.79661 2.2034 2.3051 2.2034 c1.2542 0 2.2203 -0.69492 3.0339 -1.5083 l0 -5.6102 c0 -0.13559 0.067797 -0.23729 0.18644 -0.23729 l0.89831 0 z M31.508266101694915 23.50864 c0.050847 0.10169 -0.050681 0.18678 -0.16933 0.25458 c-0.3222 0.16949 -0.89847 0.32169 -1.5425 0.32169 c-1.7627 0 -2.1864 -1.0169 -2.1864 -3.1186 l0 -4.1186 l-1.0508 0 c-0.11864 0 -0.20339 -0.067797 -0.20339 -0.20339 l0 -0.25424 c0 -0.10169 0.016949 -0.16949 0.11864 -0.23729 c1.0339 -0.49136 1.5085 -1 1.9322 -3.0169 c0.033898 -0.10169 0.067797 -0.16949 0.15254 -0.16949 l0.20339 0 c0.11864 0 0.13559 0.067797 0.13559 0.18644 l0 2.4576 l2.1017 0 c0.11864 0 0.22017 0.084746 0.22017 0.22034 l0 0.81356 c0 0.11864 -0.10153 0.20339 -0.22017 0.20339 l-1.7798 0 c-0.13559 0 -0.25424 -0.016949 -0.33898 -0.050847 l0 4 c0 1.322 0.084746 2.0847 1.1017 2.0847 c0.50847 0 0.76271 -0.08458 1.0339 -0.16933 c0.16966 -0.050847 0.30525 -0.017115 0.33915 0.11848 z  M44.660815254237285 23.67797 c-0.16949 -1.6441 -0.18661 -3.2714 -0.11881 -4.9154 c0.084746 -1.9661 -0.9661 -3.2542 -3.0339 -3.2542 c-1.339 0 -2.6947 0.40678 -3.5253 0.86441 c-0.13559 0.067797 -0.20339 0.20339 -0.13559 0.32203 l0.28814 0.64407 c0.050847 0.13559 0.15254 0.16949 0.32203 0.084746 c1.1695 -0.55915 2.0678 -0.77949 3 -0.77949 c1.2034 0 1.8983 0.61017 1.8475 1.9322 c-3.5763 0.61017 -5.8475 1.2034 -5.8475 3.2712 c0 1.3729 1.0169 2.2373 2.7288 2.2373 c1.4576 0 2.322 -0.45763 3.2373 -1.0339 c0.050847 0.50847 0.15254 0.94915 0.37288 0.94915 l0.71186 0 c0.15254 0 0.18644 -0.13543 0.15254 -0.32203 z M40.40641525423729 23.05068 c-0.88136 0 -1.6441 -0.33898 -1.6441 -1.2203 c0 -1.339 2.2203 -1.678 4.5254 -2.1525 c-0.033898 0.77966 -0.033898 1.7119 0 2.4068 c-0.62712 0.42373 -1.7458 0.9661 -2.8814 0.9661 z M54.55912033898305 23.72898 c0.016949 0.15238 -0.016784 0.27102 -0.15238 0.27102 l-0.72881 0 c-0.30508 0 -0.45763 -0.20322 -0.45763 -0.47441 l0 -4.678 c0 -1.2881 -0.81356 -2.1863 -2.3051 -2.1863 c-1.2544 0 -2.2205 0.62695 -3.0171 1.4236 l0 5.6949 c0 0.11864 -0.084746 0.22017 -0.20339 0.22017 l-0.89831 0 c-0.11864 0 -0.18644 -0.10153 -0.18644 -0.22017 l0 -7.9661 c0 -0.10169 0.084746 -0.20339 0.18644 -0.20339 l0.64407 0 c0.27119 0 0.44068 0.27119 0.45763 0.49153 l0 0.69492 c0.71186 -0.62712 1.7458 -1.3051 3.1356 -1.3051 c1.7458 0 3.4576 1.0339 3.4576 3.1863 l0 3.8136 c0.016949 0.44085 0.033898 0.84746 0.067797 1.2375 z M63.55917966101695 10.441 c0.27119 0 0.44068 0.16949 0.44068 0.4239 l0 12.932 c0 0.11864 -0.084746 0.20322 -0.18661 0.20322 l-0.47441 0 c-0.28814 0 -0.61017 -0.18644 -0.61017 -0.52542 l0 -0.27119 c-0.69492 0.52559 -1.6441 0.91508 -2.678 0.91508 c-2.4068 0 -3.9661 -1.949 -3.9661 -4.3727 c0 -2.5593 1.9661 -4.2034 3.9661 -4.2034 c1.2203 0 2.0508 0.39 2.678 0.81356 l0 -4.678 c0 -0.42373 -0.067797 -0.67814 -0.10169 -0.9661 c-0.016949 -0.15254 0.033898 -0.27119 0.15254 -0.27119 l0.77966 0 z M60.254079661016945 22.9324 c1.0339 0 1.8305 -0.38983 2.4746 -0.83051 l0 -4.5254 c-0.71186 -0.49153 -1.5254 -0.83051 -2.4746 -0.83051 c-1.339 0 -2.8983 0.9322 -2.8983 3 c0 1.8983 1.2373 3.1864 2.8983 3.1864 z  M81.15247457627119 10.441 l-0.89797 0 c-0.16949 0 -0.23729 0.050847 -0.23729 0.22051 l0 8.1524 c0 2.8305 -2.1186 4.0169 -4.0341 4.0169 c-1.8644 0 -3.9492 -1.1864 -3.9492 -4.0169 l0 -8.1524 c0 -0.15254 -0.067797 -0.22034 -0.22034 -0.22034 l-0.88136 0 c-0.16949 0 -0.23729 0.067797 -0.23729 0.22034 l0 8.3388 c0.016784 2.7292 1.9659 5.1186 5.288 5.1186 c3.339 0 5.3559 -2.3895 5.3729 -5.1186 l0 -8.3388 c0 -0.16966 -0.067797 -0.22051 -0.20339 -0.22051 z M87.59317288135593 15.5256 c2 0 3.8981 1.6441 3.8981 4.2034 c0 2.4236 -1.4915 4.3725 -3.8983 4.3725 c-1.0339 0 -1.9661 -0.38949 -2.661 -0.89797 l0 5.2541 c0 0.33898 -0.33898 0.52542 -0.61017 0.52542 l-0.47458 0 c-0.10186 0 -0.18644 -0.08458 -0.18644 -0.20339 l0 -11.932 c0 -0.42373 -0.067797 -0.67797 -0.10169 -0.9661 c-0.016784 -0.15238 0.034064 -0.27119 0.15271 -0.27119 l0.77966 0 c0.27119 0 0.44068 0.16949 0.44068 0.42373 l0 0.28814 c0.61017 -0.42373 1.4576 -0.79661 2.661 -0.79661 z M87.38967288135593 22.915399999999998 c1.661 0 2.8475 -1.2885 2.8475 -3.1866 c0 -2.0678 -1.5254 -3 -2.8475 -3 c-0.94915 0 -1.7627 0.32203 -2.4576 0.81356 l0 4.5424 c0.64407 0.44085 1.4407 0.83068 2.4576 0.83068 z"></path></g><g id="SvgjsG1315" featurekey="text3" fill="#000000" transform="matrix(1.457025168945551,0,0,1.457025168945551,73.2132064643505,205.0247217078011)"><path d="M3.6 8.18 l0 4.32 l3.82 0 c0.56 0 1.2 0.2 1.2 0.76 c0 0.58 -0.66 1.4 -1.2 1.4 c0 -0.54 -0.64 -1.14 -1.44 -1.14 l-2.38 0 l0 4.78 c0 0.48 0.38 1.1 1.36 1.1 l0.64 0 l0 0.6 l-5.06 0 l0 -0.6 l0.56 0 c0.74 0 1.04 -0.52 1.04 -0.88 l0 -10.54 c0 -0.36 -0.14 -0.94 -0.96 -0.94 l-0.62 0 l0 -0.58 l2.84 0 c0.98 0 3.58 -0.22 4.6 -0.22 c2.2 0 2.72 0.62 2.74 2 c0 0.74 -0.38 1.56 -1.2 1.56 c0 -1.8 -0.64 -2.62 -2.9 -2.62 c-1.3 0 -3.04 0.14 -3.04 1 z M17.72 20.34 c-3.78 0 -6.66 -3.16 -6.66 -7.06 c0 -4.08 2.44 -7.1 6.6 -7.1 c4.44 0 6.7 3.18 6.7 7.1 c0 3.78 -2.4 7.06 -6.64 7.06 z M12.68 13.280000000000001 c0 3.2 1.84 6.04 5.08 6.06 c3.12 0 4.98 -2.68 4.98 -6.06 c0 -3.42 -1.8 -6.16 -5.12 -6.16 c-3.44 0 -4.9 3.1 -4.94 6.16 z M35.8 16.759999999999998 c1.22 2.22 1.54 2.58 2.32 2.58 l0 0.12 c0 0.56 -0.56 0.82 -1.18 0.82 c-0.96 0 -1.44 -0.94 -2.16 -2.3 c-0.78 -1.46 -1.9 -3.62 -3.66 -3.62 c-0.32 0 -0.98 -0.18 -0.98 -0.68 c0 -0.22 0.08 -0.52 0.22 -0.72 c0 0 0.5 0.32 1.16 0.32 c2.2 0 3.12 -1.82 3.12 -2.98 c0 -1.54 -0.8 -3.24 -3.54 -3.24 c-0.74 0 -1.82 0.2 -2.44 0.56 l0 10.56 c0 0.74 0.44 1.22 1.12 1.22 l0.74 0 l0 0.6 l-5.04 0 l0 -0.6 l0.58 0 c0.76 0 1.14 -0.42 1.14 -1.22 l0 -10.24 c0 -0.56 -0.44 -0.9 -1.14 -0.9 l-0.58 0 l0 -0.58 l1.92 0 c1.56 0 2.32 -0.3 3.82 -0.3 c3.46 0 5 1.8 5 3.96 c0 2.12 -1.84 3.58 -3 3.74 c1.08 0.26 1.98 1.82 2.58 2.9 z  M52.260000000000005 6.460000000000001 l4.72 0 l0 0.6 l-0.3 0 c-0.78 0 -1.38 0.48 -1.9 1.3 c-1.52 2.4 -3.1 5.12 -3.42 5.72 l0 4.22 c0 0.62 0.54 1.1 1.28 1.1 l0.84 0 l0 0.6 l-5.54 0 l0 -0.6 l0.72 0 c0.82 0 1.24 -0.6 1.24 -1.1 l0 -3.96 c0 -0.64 -2.22 -4.26 -2.92 -5.38 c-0.38 -0.62 -1.26 -1.96 -2.1 -1.96 c-0.24 0 -0.44 0.06 -0.56 0.12 c0 0 0.48 -0.94 1.28 -0.94 c0.84 0 1.24 0.14 2.1 1.48 c0.98 1.58 1.68 2.78 3.08 5.28 c0.58 -1.04 2.44 -4.3 2.62 -4.7 c0.1 -0.18 0.14 -0.36 0.14 -0.52 c0 -0.4 -0.32 -0.66 -0.9 -0.66 l-0.38 0 l0 -0.6 z M63.98 20.34 c-3.78 0 -6.66 -3.16 -6.66 -7.06 c0 -4.08 2.44 -7.1 6.6 -7.1 c4.44 0 6.7 3.18 6.7 7.1 c0 3.78 -2.4 7.06 -6.64 7.06 z M58.94 13.280000000000001 c0 3.2 1.84 6.04 5.08 6.06 c3.12 0 4.98 -2.68 4.98 -6.06 c0 -3.42 -1.8 -6.16 -5.12 -6.16 c-3.44 0 -4.9 3.1 -4.94 6.16 z M84.47999999999999 7.039999999999999 c-0.38 0 -0.98 0.24 -0.98 0.82 l0 10.12 c0 0.88 0.32 1.4 1.06 1.4 l0.66 0 l0 0.62 l-1.46 0 c-1.04 0 -1.72 -0.62 -1.72 -1.74 l0 -0.42 c-0.68 0.88 -2.1 2.3 -4.16 2.3 c-3.3 0 -4.56 -2.16 -4.56 -5 l0 -7.06 c0 -0.54 -0.2 -1.04 -1.06 -1.04 l-0.52 0 l0 -0.58 l4.62 0 l0 0.58 l-0.72 0 c-0.28 0 -0.86 0.18 -0.86 0.82 l0 7.04 c0 2.56 0.96 4.16 3.08 4.16 c2.54 0 4.18 -2.44 4.18 -3.42 l0 -7.5 c0 -0.6 -0.22 -1.1 -1.06 -1.1 l-0.52 0 l0 -0.58 l4.76 0 l0 0.58 l-0.74 0 z M96.53999999999999 16.759999999999998 c1.22 2.22 1.54 2.58 2.32 2.58 l0 0.12 c0 0.56 -0.56 0.82 -1.18 0.82 c-0.96 0 -1.44 -0.94 -2.16 -2.3 c-0.78 -1.46 -1.9 -3.62 -3.66 -3.62 c-0.32 0 -0.98 -0.18 -0.98 -0.68 c0 -0.22 0.08 -0.52 0.22 -0.72 c0 0 0.5 0.32 1.16 0.32 c2.2 0 3.12 -1.82 3.12 -2.98 c0 -1.54 -0.8 -3.24 -3.54 -3.24 c-0.74 0 -1.82 0.2 -2.44 0.56 l0 10.56 c0 0.74 0.44 1.22 1.12 1.22 l0.74 0 l0 0.6 l-5.04 0 l0 -0.6 l0.58 0 c0.76 0 1.14 -0.42 1.14 -1.22 l0 -10.24 c0 -0.56 -0.44 -0.9 -1.14 -0.9 l-0.58 0 l0 -0.58 l1.92 0 c1.56 0 2.32 -0.3 3.82 -0.3 c3.46 0 5 1.8 5 3.96 c0 2.12 -1.84 3.58 -3 3.74 c1.08 0.26 1.98 1.82 2.58 2.9 z  M116.92000000000002 9.86 c0 1.5 -0.78 2.32 -1.88 2.86 c1.2 0.3 2.56 1.36 2.56 3.34 c0 2.18 -1.46 3.94 -4.78 3.94 l-6.68 0 l0 -0.6 l0.52 0 c0.76 0 1.08 -0.5 1.08 -0.94 l0 -10.5 c0 -0.6 -0.42 -0.9 -0.88 -0.9 l-0.72 0 l0 -0.6 l1.92 0 c0.66 0 1.34 -0.08 1.94 -0.14 c0.64 -0.08 1.34 -0.14 2.16 -0.14 c3.72 0 4.76 1.92 4.76 3.68 z M112.54 19.06 c2.6 0 3.5 -1.72 3.5 -2.86 c0 -1.02 -0.48 -2.66 -2.56 -2.66 c-0.38 0 -1.04 0.12 -1.46 0.12 c-0.6 0 -0.94 -0.24 -0.94 -0.76 c0 -0.28 0.3 -0.54 0.3 -0.54 s0.84 0.1 1.3 0.1 c1.6 0 2.68 -1.08 2.68 -2.48 c0 -1.26 -0.56 -2.86 -3.58 -2.86 c-0.76 0 -1.96 0.16 -2.6 0.52 l0 10.92 c0.06 0.06 0.54 0.5 3.36 0.5 z M126.92 6.34 c2.08 0 2.5 0.52 2.52 1.9 c0 0.74 -0.52 1.56 -1.18 1.56 c0 -1.8 -0.64 -2.58 -2.9 -2.58 c-1.3 0 -3.1 0.12 -3.1 0.98 l0 4.2 l3.42 0 c1 0 1.16 0.46 1.16 0.76 c0 0.58 -0.72 1.16 -1.28 1.16 c0 -0.54 -0.38 -0.9 -1.28 -0.9 l-2.02 0 l0 4.94 c0 0.72 1.94 0.74 3.34 0.74 c2.62 0 3.3 -1.98 3.3 -2.32 c0.58 0 1.08 0.56 1.08 1.16 c0 1.72 -2 2.06 -3.94 2.06 l-6.84 0 l0 -0.72 l0.66 0 c0.42 0 0.96 -0.26 0.96 -0.9 l0 -10.4 c0 -0.36 -0.14 -0.94 -0.96 -0.94 l-0.62 0 l0 -0.58 l2.84 0 c0.98 0 3.82 -0.12 4.84 -0.12 z M136.3 13.879999999999999 c-3.6 -1.52 -4 -2.9 -4 -4.3 c0 -1.54 1.48 -3.4 4.22 -3.4 c2.78 0 4.1 1.32 4.1 2.68 c0 1.24 -0.78 1.56 -1.32 1.56 c0 -2.48 -1.12 -3.32 -2.78 -3.32 c-1.54 0 -2.76 1.06 -2.76 2.4 c0 3.46 7.32 2.92 7.32 7.26 c0 1.84 -1.78 3.56 -4.82 3.56 c-3.1 0 -4.46 -1.64 -4.46 -2.76 c0 -1.26 1.08 -1.44 1.08 -1.44 s0.28 3.18 3.6 3.18 c2.68 0 3.14 -1.74 3.14 -2.38 c0 -0.68 -0.08 -1.68 -3.32 -3.04 z M152.64000000000001 7.300000000000001 c0 0.56 -0.08 2 -0.78 2 c0 -2 -1.84 -2 -3.06 -2 c-0.6 0 -0.76 0.42 -0.76 0.84 l0 10.1 c0 0.62 0.48 1.16 1.22 1.16 l0.74 0 l0 0.6 l-5.34 0 l0 -0.6 l0.68 0 c0.6 0 1.24 -0.44 1.24 -1.16 l0 -10.02 c0 -0.52 -0.12 -0.94 -0.8 -0.94 c-2.62 0 -2.98 1.2 -3.14 1.66 c-0.26 0 -0.64 -0.7 -0.64 -1.28 c0 -0.26 0 -0.78 0.58 -1.08 c0.44 -0.22 1.22 -0.22 1.86 -0.22 c0.72 0 1.46 0.06 2.88 0.06 c0.42 0 3.62 -0.1 4.2 -0.1 c0.92 0 1.12 0.56 1.12 0.98 z"></path></g></svg>
